<svg xmlns="http://www.w3.org/2000/svg" xmlns:xlink="http://www.w3.org/1999/xlink" width="360" height="359" viewBox="0 0 360 359"><defs><clipPath id="b"><rect width="360" height="359"/></clipPath></defs><g id="a" clip-path="url(#b)"><rect width="360" height="359" fill="#fff"/><rect width="375" height="359" fill="#f5ceb8"/><circle cx="25" cy="25" r="25" transform="translate(330 261)" fill="#e2b39b"/><g transform="translate(-55 42)"><path d="M330,78.1a92.419,92.419,0,0,0-14.521-23.854L114.023,52.2,279.889,28.18A91.653,91.653,0,0,0,246.236,21.3a92.063,92.063,0,0,0-112.687-3.938A92.17,92.17,0,0,0,0,81Z" transform="translate(30)" fill="#ff7363" opacity="0.1"/><path d="M367,32.551A86.944,86.944,0,0,0,360.707,0L10.671,36.661a87.548,87.548,0,0,0-8.2,20.661L110.867,73.439,0,85.192c3.335,46.556,43.336,83.321,92.2,83.321A93.661,93.661,0,0,0,155.711,144a93.643,93.643,0,0,0,64.035,25c36.888,0,68.722-20.956,83.549-51.257,29.744-9.4,52.832-33.071,60.757-62.661l-137.085-21.2H366.98C366.98,33.441,367,33,367,32.551Z" transform="translate(0 77)" fill="#ff7363" opacity="0.1"/></g></g></svg>