<svg xmlns="http://www.w3.org/2000/svg" xmlns:xlink="http://www.w3.org/1999/xlink" width="123" height="115.999" viewBox="0 0 123 115.999"><defs><linearGradient id="a" x1="0.5" y1="1" x2="0.5" gradientUnits="objectBoundingBox"><stop offset="0" stop-color="gray" stop-opacity="0.251"/><stop offset="0.54" stop-color="gray" stop-opacity="0.122"/><stop offset="1" stop-color="gray" stop-opacity="0.102"/></linearGradient></defs><g transform="translate(0 -0.001)"><rect width="123" height="1" transform="translate(0 104)" fill="#fff" opacity="0.05"/><rect width="123" height="1" transform="translate(0 107)" fill="#fff" opacity="0.05"/><rect width="123" height="1" transform="translate(0 115)" fill="#fff" opacity="0.05"/><g transform="translate(101 33)" opacity="0.5"><path d="M2.256.369A1.177,1.177,0,0,0,.386.6,2.5,2.5,0,0,0,.444,3.361l1.787,2.4a.248.248,0,0,0,.422,0L4.429,3.347A2.5,2.5,0,0,0,4.477.59,1.174,1.174,0,0,0,2.608.367.241.241,0,0,1,2.256.369Z" transform="translate(0.131 0.001)" fill="#f55f44"/><path d="M.228,0a.468.468,0,0,0,0,.336Q.266.412.3.492a.575.575,0,0,1-.116.45.352.352,0,0,0-.075.284.356.356,0,0,0,.061.092.737.737,0,0,1,.124.56A.561.561,0,0,1,0,2.311" transform="translate(2.358 5.668)" fill="none" stroke="#f55f44" stroke-miterlimit="10" stroke-width="1"/></g><g transform="translate(10 45)" opacity="0.5"><path d="M2.256.369A1.177,1.177,0,0,0,.386.6,2.5,2.5,0,0,0,.444,3.361l1.787,2.4a.248.248,0,0,0,.422,0L4.429,3.347A2.5,2.5,0,0,0,4.477.59,1.174,1.174,0,0,0,2.608.367.241.241,0,0,1,2.256.369Z" transform="translate(0.131 0.001)" fill="#f55f44"/><path d="M.228,0a.468.468,0,0,0,0,.336Q.266.412.3.492a.575.575,0,0,1-.116.45.352.352,0,0,0-.075.284.356.356,0,0,0,.061.092.737.737,0,0,1,.124.56A.561.561,0,0,1,0,2.311" transform="translate(2.358 5.668)" fill="none" stroke="#f55f44" stroke-miterlimit="10" stroke-width="1"/></g><g transform="translate(70)" opacity="0.5"><path d="M2.256.369A1.177,1.177,0,0,0,.386.6,2.5,2.5,0,0,0,.444,3.361l1.787,2.4a.248.248,0,0,0,.422,0L4.429,3.347A2.5,2.5,0,0,0,4.477.59,1.174,1.174,0,0,0,2.608.367a.241.241,0,0,1-.353,0Z" transform="translate(0.131 0.001)" fill="#f55f44"/><path d="M.228,0a.468.468,0,0,0,0,.336Q.266.412.3.492a.575.575,0,0,1-.116.45.343.343,0,0,0-.075.284.356.356,0,0,0,.061.092.737.737,0,0,1,.124.56A.561.561,0,0,1,0,2.311" transform="translate(2.358 5.668)" fill="none" stroke="#f55f44" stroke-miterlimit="10" stroke-width="1"/></g><g transform="translate(86 22)" opacity="0.5"><rect width="0.353" height="1.889" transform="translate(0.824 0.02)" fill="#47e6b1"/><path d="M.333,0H.667V2H.333Z" transform="translate(2 0.464) rotate(90)" fill="#47e6b1"/></g><g transform="translate(33 64)" opacity="0.5"><rect width="0.353" height="1.889" transform="translate(0.824 0.02)" fill="#47e6b1"/><path d="M.333,0H.667V2H.333Z" transform="translate(2 0.464) rotate(90)" fill="#47e6b1"/></g><g transform="translate(20 20)" opacity="0.5"><rect width="0.353" height="1.889" transform="translate(0.824 0.02)" fill="#47e6b1"/><path d="M.333,0H.667V2H.333Z" transform="translate(2 0.464) rotate(90)" fill="#47e6b1"/></g><g transform="translate(105 61)" opacity="0.5"><rect width="0.353" height="1.889" transform="translate(0.824 0.02)" fill="#47e6b1"/><path d="M.333,0H.667V2H.333Z" transform="translate(2 0.464) rotate(90)" fill="#47e6b1"/></g><path d="M1.841,1.024a.548.548,0,0,1-.3-.663A.177.177,0,0,0,1.553.3h0a.276.276,0,0,0-.5-.181h0a.31.31,0,0,0-.03.054.553.553,0,0,1-.666.3A.28.28,0,0,0,.294.46h0A.275.275,0,0,0,.111.954h0a.273.273,0,0,0,.054.03.547.547,0,0,1,.3.663.3.3,0,0,0-.012.061h0a.276.276,0,0,0,.5.182h0a.236.236,0,0,0,.03-.054.554.554,0,0,1,.667-.306.266.266,0,0,0,.06.012h0a.275.275,0,0,0,.183-.494h0a.237.237,0,0,0-.048-.024Z" transform="translate(85 39)" fill="#4d8af0" opacity="0.5"/><path d="M1.834,1.024a.549.549,0,0,1-.3-.663A.177.177,0,0,0,1.548.3h0a.275.275,0,0,0-.5-.181h0a.31.31,0,0,0-.03.054.55.55,0,0,1-.663.3A.278.278,0,0,0,.293.46h0A.275.275,0,0,0,.11.954h0a.272.272,0,0,0,.054.03.548.548,0,0,1,.306.663.3.3,0,0,0-.012.061h0a.275.275,0,0,0,.495.182h0a.236.236,0,0,0,.03-.054.551.551,0,0,1,.665-.306.265.265,0,0,0,.06.012h0a.275.275,0,0,0,.182-.494h0A.236.236,0,0,0,1.834,1.024Z" transform="translate(27 34)" fill="#4d8af0" opacity="0.5"/><path d="M1.834,1.02a.546.546,0,0,1-.3-.66A.176.176,0,0,0,1.548.3h0a.275.275,0,0,0-.5-.18h0a.309.309,0,0,0-.03.054.551.551,0,0,1-.663.3A.279.279,0,0,0,.293.465h0A.274.274,0,0,0,.11.958h0a.272.272,0,0,0,.054.03.545.545,0,0,1,.306.66.3.3,0,0,0-.012.061h0a.275.275,0,0,0,.495.181h0a.235.235,0,0,0,.03-.054.552.552,0,0,1,.665-.3.265.265,0,0,0,.06.012h0a.274.274,0,0,0,.182-.492h0A.236.236,0,0,0,1.834,1.02Z" transform="translate(50 3)" fill="#4d8af0" opacity="0.5"/><path d="M43.122,68.8s-.046-.1-.112-.261a41.947,41.947,0,0,1-10.694-.771H32.2c-7.024,1.583-22.221.846-22.221.846s-3.984-1.859-5.41-4.588c-.907-1.731.165-4.286,2.1-5.668-3.073-.688-7.729-2.2-6.454-4.873,1.866-3.906,9.452,2.728,9.452,2.728l10.695-7.44c2.86-1.434,2.488-12.9,2.488-12.9s-.13-7.009.875-9.06a4.8,4.8,0,0,1,2.408-1.671c.1-1.682.214-3.337-.662-4.583-.545-.775-1.375-1.2-1.959-1.928a6.025,6.025,0,0,1-1.053-3.477c-.122-2.675.8-5.649,2.869-6.764A7.955,7.955,0,0,0,26.987,7.5c1.634-1.454.866-5.022,2.562-6.373a3.377,3.377,0,0,1,1.7-.585A35.995,35.995,0,0,1,36.232.292a10.01,10.01,0,0,0,1.48-.147A8.223,8.223,0,0,1,39.488.011c2.868.211,4.309,3.907,5.7,6.336a7.28,7.28,0,0,0,3.433,3.461,2.648,2.648,0,0,1,1.319.67,2.41,2.41,0,0,1,.4,1.024c.536,2.626.177,5.527,1.229,7.925.852,1.947,2.484,3.208,3.779,4.779s2.318,3.913,1.526,5.9a3.844,3.844,0,0,1-2.6,2.251c-.071.021-.154.04-.229.056a10.829,10.829,0,0,1-.35,1.969s.374,7.44.623,9.176.869,4.216.869,4.216L62.9,53.722s10.758-5.085,10.073-.612c-.375,2.452-3.638,3.258-6.5,3.487,2.559.825,4.688,2.616,2.648,6.5C66.448,68.164,55.678,69,48.866,69,45.515,69,43.122,68.8,43.122,68.8Z" transform="translate(26 43)" fill="url(#a)"/><path d="M22.281,6.249a7.1,7.1,0,0,0,3.372,3.4,2.517,2.517,0,0,1,1.285.662,2.371,2.371,0,0,1,.39,1.008c.525,2.582.173,5.435,1.2,7.8.835,1.911,2.433,3.156,3.7,4.7s2.266,3.847,1.5,5.8a3.779,3.779,0,0,1-2.545,2.215,7.423,7.423,0,0,1-3.251-.023A8.6,8.6,0,0,1,23.878,30.2c-2.05-1.669-2.917-4.662-3.99-7.326-.5-1.248-1.174-2.554-2.282-3-1.268-.511-2.7.342-3.52,1.595A14.676,14.676,0,0,0,12.5,25.807a9.628,9.628,0,0,1-2.2,4.6,3.7,3.7,0,0,1-3.956.791,4.794,4.794,0,0,1-2.661-3.551c-.466-2.484.652-5.466-.721-7.43-.533-.76-1.347-1.175-1.919-1.9A5.989,5.989,0,0,1,.011,14.905c-.12-2.633.78-5.567,2.811-6.657A7.635,7.635,0,0,0,4.447,7.38c1.606-1.429.848-4.939,2.51-6.27A3.288,3.288,0,0,1,8.623.533,34.66,34.66,0,0,1,13.5.288c1.058,0,2.148-.354,3.192-.277C19.506.222,20.918,3.858,22.281,6.249Z" transform="translate(50 45)" fill="#965d7b"/><path d="M0,2.643.592,10,42,9.741l-.79-8.031L27.211,0,2.662,1.555,0,2.643Z" transform="translate(43 101)" fill="#575988"/><path d="M0,2.643.592,10,42,9.741l-.79-8.031L27.211,0,2.662,1.555,0,2.643Z" transform="translate(43 101)" opacity="0.05"/><path d="M13.823,0,0,.907S9.471,2.6,15,1.775Z" transform="translate(57 108)" fill="#f7c4a7"/><path d="M13.823,0,0,.907S9.471,2.6,15,1.775Z" transform="translate(57 108)" opacity="0.1"/><path d="M3.157,0S5.766,7.324,1.91,10.592,1.23,23,1.23,23l14.856-.727s1.473-10.289.68-12.467c0,0-3.516,1.089-4.309-1.211S11.1,0,11.1,0Z" transform="translate(57 58)" fill="#f7c4a7"/><path d="M22.387,1.389S9.676,1.09,5.939.129-1.02,3.779.3,6.414s5,4.421,5,4.421S24.227,11.791,28.31,9.1c0,0,1.553-4.6,0-5.5H8.584l14.549-.3Z" transform="translate(33 101)" fill="#575988"/><path d="M7.341,1.48S11.71,2.465,17.729,0c0,0,11.275-.368,7.5,7.135S.553,12.8.553,12.8s-1.244-2.77,0-3.508S12.595,3.815,15.959,4.062L6.627,5.969Z" transform="translate(70 99)" fill="#575988"/><path d="M9,2.7C8.765,1.214,8.627,0,8.627,0H0A12.491,12.491,0,0,1,.825,2.96,7.758,7.758,0,0,0,9,2.7Z" transform="translate(60 58)" opacity="0.1"/><circle cx="6.5" cy="6.5" r="6.5" transform="translate(58 49)" fill="#f7c4a7"/><path d="M32.021.716s-7.983,1.494-8.95,3.463-.846,8.721-.846,8.721.362,11.049-2.419,12.423L9.4,32.491S2.026,26.1.21,29.863,8.92,35,8.92,35l11.732-3.463,3.75-2.389a3.686,3.686,0,0,0,1.935-2.868l1.573-12.3,6.29-1.793H44.359L45.72,8.347s2.51,1.986,2.147,3.837.606,13.851.606,13.851.786,2.687,2.419,3.463l9.434,3.345S70.3,33.8,70.969,29.5s-9.8.612-9.8.612l-7.5-5.74s-.6-2.389-.846-4.062-.6-8.839-.6-8.839,2.3-7.527-4.355-8.839L39.274,0Z" transform="translate(27 66)" fill="#f7c4a7"/><path d="M.332,1.944l1.237,8.114a12.972,12.972,0,0,0,0,7.486C2.84,21.258,0,35.094,0,35.094s14.9,4.734,24-.72c0,0-6.695-14.013-3.861-18.684s.048-6.5.048-6.5L20.623.6,18.572,0,17.366,8.5s-8.324,5.749-14.476.72L1.562,0Z" transform="translate(53 67)" opacity="0.1"/><path d="M5,1.976A3.69,3.69,0,0,0,0,.444,6.834,6.834,0,0,0,5,1.976Z" transform="translate(57 76)" fill="#fff" opacity="0.07"/><path d="M0,1.979A3.688,3.688,0,0,1,5,.445,6.879,6.879,0,0,1,0,1.979Z" transform="translate(68 76)" fill="#fff" opacity="0.07"/><path d="M.332,2.366,1.569,10.06a12.973,12.973,0,0,0,0,7.486C2.84,21.26,0,35.094,0,35.094s14.9,4.734,24-.718c0,0-6.695-14.013-3.861-18.685s.048-6.5.048-6.5L20.623.6,18.572,0,17.366,8.5S9.042,14.253,2.89,9.222L1.562,0Z" transform="translate(53 67)" opacity="0.1"/><path d="M.272,2.186l1.3,7.875a12.973,12.973,0,0,0,0,7.486C2.84,21.26,0,35.094,0,35.094s14.9,4.734,24-.718c0,0-6.695-14.015-3.861-18.686s.048-6.5.048-6.5L20.623.6,18.572,0,17.366,8.5S9.042,14.253,2.89,9.222L1.562,0Z" transform="translate(53 67)" fill="#fc6681"/><path d="M0,3.02l3.02-.449S6.506-2.347,9,1.421c0,0,1.045,2.427,2.324,2.873A15.836,15.836,0,0,0,14,4.934l-5.171,1.6A7.491,7.491,0,0,1,4.182,7.616,8.237,8.237,0,0,0,0,8Z" transform="translate(61 102)" fill="#f7c4a7"/><path d="M0,.738S6.837,1.677,8,0" transform="translate(56 84)" opacity="0.1"/><path d="M0,0S.8,1.852,4,.515" transform="translate(69 83)" opacity="0.1"/><path d="M0,0S3.366,1.69,4,.676" transform="translate(57 67)" opacity="0.1"/><path d="M0,0S3.366,1.69,4,.676" transform="translate(67 67)" opacity="0.1"/><path d="M2.534,0s1.048,3.848,0,3.984A4.4,4.4,0,0,1,0,3.264C0,3.178.661.73.661.73Z" transform="translate(58 105)" opacity="0.1"/><path d="M2.535,0s1.047,3.848,0,3.984A4.407,4.407,0,0,1,0,3.264C0,3.178.661.73.661.73Z" transform="translate(58 105)" fill="#575988"/><path d="M.4,4.118A4.519,4.519,0,0,0,.271,7.481,10.054,10.054,0,0,1,1.406,9.8c.161,1.093-.583,2.2-.3,3.266a3.055,3.055,0,0,0,.6,1.074c.763.981,1.777,1.932,2.954,1.856.187-1.979-1.386-3.9-.871-5.809a17.741,17.741,0,0,1,.879-1.9A6.933,6.933,0,0,0,4.882,4.8C4.654,3.1,4.075,1.025,2.531.232,1.822-.132.815-.16.563.831.424,1.36.748,1.857.791,2.374A3.662,3.662,0,0,1,.4,4.118Z" transform="translate(56 63)" opacity="0.1"/><path d="M.4,4.119A4.519,4.519,0,0,0,.271,7.482,10.045,10.045,0,0,1,1.406,9.8c.161,1.093-.583,2.2-.3,3.266a3.061,3.061,0,0,0,.6,1.076c.763.98,1.777,1.931,2.954,1.854.187-1.979-1.386-3.9-.871-5.809a17.742,17.742,0,0,1,.879-1.9A6.934,6.934,0,0,0,4.882,4.8C4.654,3.1,4.075,1.025,2.531.232,1.822-.133.815-.159.563.831.424,1.36.748,1.857.791,2.374A3.671,3.671,0,0,1,.4,4.119Z" transform="translate(56 61)" fill="#965d7b"/><path d="M0,5.576s8.253-1.218,8.48.608S16,11,16,11L14.19,6.184,10.854.214s-6.108-.482-6.388,0S.959,2.285.959,2.285Z" transform="translate(56 47)" opacity="0.1"/><path d="M0,5.576s8.253-1.218,8.48.608S16,11,16,11L14.19,6.184,10.854.214s-6.108-.482-6.388,0S.959,2.285.959,2.285Z" transform="translate(56 47)" fill="#965d7b"/><path d="M.891,1.363A4.3,4.3,0,0,1,2,3.23c.183.658.2,1.342.364,2A8.228,8.228,0,0,0,4.98,8.869a4.611,4.611,0,0,0,1.34.95,2.044,2.044,0,0,0,1.68,0,2.477,2.477,0,0,1-.878-1.292,5.644,5.644,0,0,1-.307-2.082c.05-1.174.458-2.414-.121-3.485A4.643,4.643,0,0,0,5.1,1.45,8.871,8.871,0,0,0,3.68.663,10.186,10.186,0,0,0,.628.009C-.722-.107.459.933.891,1.363Z" transform="translate(68 63)" opacity="0.1"/><path d="M.891,1.366A4.28,4.28,0,0,1,2,3.231c.183.658.2,1.342.364,2A8.227,8.227,0,0,0,4.98,8.87a4.611,4.611,0,0,0,1.34.949,2.044,2.044,0,0,0,1.68,0,2.47,2.47,0,0,1-.878-1.292,5.642,5.642,0,0,1-.307-2.082c.05-1.174.458-2.414-.121-3.484A4.674,4.674,0,0,0,5.1,1.451,8.75,8.75,0,0,0,3.68.663,10.188,10.188,0,0,0,.628.009C-.722-.105.459.935.891,1.366Z" transform="translate(68 63)" fill="#965d7b"/></g></svg>