<svg xmlns="http://www.w3.org/2000/svg" xmlns:xlink="http://www.w3.org/1999/xlink" width="104" height="72" viewBox="0 0 104 72"><defs><linearGradient id="a" x1="0.5" y1="1" x2="0.5" gradientUnits="objectBoundingBox"><stop offset="0" stop-color="gray" stop-opacity="0.251"/><stop offset="0.54" stop-color="gray" stop-opacity="0.122"/><stop offset="1" stop-color="gray" stop-opacity="0.102"/></linearGradient></defs><path d="M90,21.211a25.083,25.083,0,0,0-3.96-6.479L31.1,14.177,76.333,7.654a25.085,25.085,0,0,0-9.178-1.87,25.19,25.19,0,0,0-30.733-1.07A25.174,25.174,0,0,0,0,22Z" transform="translate(12)" fill="#c263ff" opacity="0.1"/><path d="M100,8.86A23.643,23.643,0,0,0,98.285,0L2.908,9.979A23.815,23.815,0,0,0,.674,15.6l29.535,4.387L0,23.188C.909,35.86,11.808,45.867,25.124,45.867a25.536,25.536,0,0,0,17.3-6.672A25.531,25.531,0,0,0,59.876,46,25.256,25.256,0,0,0,82.642,32.048,24.786,24.786,0,0,0,99.2,14.993L61.844,9.223H99.994C99.994,9.1,100,8.982,100,8.86Z" transform="translate(4 21)" fill="#c263ff" opacity="0.1"/><ellipse cx="38" cy="3.5" rx="38" ry="3.5" transform="translate(6 64)" fill="#ffb463"/><path d="M53.538,34.217c-.668-.871-2.749-.539-2.749-.539l-3.167.248s-5.74.757-7.666-.57a6.448,6.448,0,0,0-3.208-1.337,10.144,10.144,0,0,1-3.207.746,16.573,16.573,0,0,0-2.407.342.919.919,0,0,1-.091.239h-.034a.916.916,0,0,1-.091.248,23.718,23.718,0,0,1-3.979-.208,26.275,26.275,0,0,0-5.306.167s-1.507,0-4.84.311a90.64,90.64,0,0,1-9.519,0s-3.128-.313-3.729-1-1.27-.727-2.333-1.633S0,27.682,0,27.682s-.247-2.149,3.441-2.957a8.425,8.425,0,0,1,6.207.918s.018-.027.043-.07H9.661l.041-.015a1.964,1.964,0,0,0,.308-.959,6.687,6.687,0,0,1,.547-1.773l.012-.005a.249.249,0,0,1,0-.149,14.286,14.286,0,0,1,.875-1.836s.484-.279.469-.545.89-1.042.89-1.042.563-.464.484-.855.547-1.027.547-1.027l1.186-2.317s1-2.159,1.688-2.255S18.662,10.7,18.662,10.7s2.25-1.805,2.265-2.179,1.126-1.041,1.126-1.041,0,.041.019.111l.13-.1a7.357,7.357,0,0,1,2.84-1.563,14.5,14.5,0,0,0,2-1.535,45.453,45.453,0,0,1,6.094-2.723A27.9,27.9,0,0,1,40.081,0h.045l9.039,1.9a8.423,8.423,0,0,1,2.792,1.14c.256.163.534.344.825.539-.156-.1-.313-.2-.45-.291s-.276-.168-.418-.247c2.455,1.567,7.1,4.877,4.5,6.036-3.458,1.543-5.542-4.14-5.542-4.14s-1.084-1-4.248-.747a45.015,45.015,0,0,1-8.282-.577A7.805,7.805,0,0,1,33.96,5.52s-1.791.622-2.04,1.119c-.2.405-.573,1.249-.7,1.55l.08-.015-.107.081c-.013.029-.018.043-.018.043l.585.167a4.22,4.22,0,0,0,1.023.126,2.19,2.19,0,0,0,.254-.02A3.912,3.912,0,0,1,37.353,5.2c.041,0,.083.011.122.017a.074.074,0,0,0,.006-.032V5.174a.317.317,0,0,1,.292-.238c.071-.013.148-.022.223-.031a1.628,1.628,0,0,1,.182-.017h.047c.074,0,.147,0,.221,0a2.465,2.465,0,0,1,1.094.3c.125.067.245.145.374.2a8.631,8.631,0,0,0,.962.253,2.591,2.591,0,0,1,1.438,1.3,7.659,7.659,0,0,1,.621,1.877,1.029,1.029,0,0,1,.035.45.7.7,0,0,1-.072.181l-.032.053a1.9,1.9,0,0,1,.357.153,2.51,2.51,0,0,1,.854.8,3.975,3.975,0,0,1,.59,1.944,2.882,2.882,0,0,1-.043.87v.013l-.005.025c-.007.027-.014.055-.023.082l-.016.05c-.019.056-.039.112-.061.166-.037.1-.078.187-.117.278a1.979,1.979,0,0,0-.135.415,2.857,2.857,0,0,0,.256,1.4,10.053,10.053,0,0,1,.355,1.325,3.44,3.44,0,0,1,.031,1.42v-.007c0,.018-.009.037-.014.055l-.005.022-.005.021c-.009.034-.018.062-.027.091,0,.011,0,.01-.01.033s-.017.048-.026.072c-.022.052-.045.1-.071.154l-.013.023c-.01.02-.022.041-.032.059l-.011.015-.022.04c-.016.026-.029.045-.049.079s-.041.067-.063.1l-.008.012c-.065.1-.133.2-.2.293l-.072.108c-.036.054-.069.11-.1.165-.013.021-.025.043-.036.064a1.436,1.436,0,0,0-.068.129,1.624,1.624,0,0,0-.113.315,3.139,3.139,0,0,0,.315,1.754,5.507,5.507,0,0,1,.249,3.585c-.008.027-.018.055-.028.082l-.032.084a.07.07,0,0,0-.011.026,1.624,1.624,0,0,1-.072.157v.006a10.182,10.182,0,0,1,1.327.689,14.779,14.779,0,0,1,2.884.713,5.625,5.625,0,0,0,1.779.363c1.292,0,7.957-1.742,7.957-.87a.338.338,0,0,1-.125.215l.1-.043a5.943,5.943,0,0,0,1.105-.545c.457-.413,4.458-4.018,3.417-.578a8.389,8.389,0,0,1-3.374,4.768,18.352,18.352,0,0,0-3.083,3.525A1.29,1.29,0,0,1,55.133,35,2.1,2.1,0,0,1,53.538,34.217Z" transform="translate(15 34)" fill="url(#a)"/><path d="M34.249,8.791c-3.377,1.493-5.411-4.007-5.411-4.007s-1.056-.964-4.149-.723A44.44,44.44,0,0,1,16.594,3.5a7.632,7.632,0,0,1-4.271,1.846s-1.749.6-1.992,1.085c-.2.391-.559,1.209-.687,1.5a.559.559,0,0,1-.026.063c-.013.028-.018.043-.018.043l-.1.046h0l-2.015.955L4.719,9.8l-1.75.2L0,7.969s.343-.316.847-.715A7.21,7.21,0,0,1,3.621,5.742,14.107,14.107,0,0,0,5.574,4.257a44.038,44.038,0,0,1,5.95-2.64A27.454,27.454,0,0,1,18.305,0l8.825,1.84a8.276,8.276,0,0,1,2.729,1.1C32.255,4.463,36.793,7.667,34.249,8.791Z" transform="translate(37 34)" fill="#ffc1c7"/><g transform="translate(37 34)" opacity="0.1"><path d="M.368,8.125s.346-.314.853-.708a7.3,7.3,0,0,1,2.793-1.5A14.193,14.193,0,0,0,5.982,4.448a44.6,44.6,0,0,1,5.992-2.615A28,28,0,0,1,18.8.239L27.691,2.06a8.4,8.4,0,0,1,2.748,1.092q.212.132.443.279c-.287-.188-.561-.362-.811-.518a8.41,8.41,0,0,0-2.748-1.091L18.435,0a28.026,28.026,0,0,0-6.829,1.6A44.6,44.6,0,0,0,5.613,4.216,14.252,14.252,0,0,1,3.647,5.687a7.292,7.292,0,0,0-2.793,1.5C.346,7.577,0,7.893,0,7.893L2.99,9.9H3Z" transform="translate(0.008 0.039)"/><path d="M.365.224A1.826,1.826,0,0,0,0,0C.082.211,1.12,2.819,2.889,3.821A9.088,9.088,0,0,1,.365.224Z" transform="translate(29.057 4.781)"/></g><path d="M4.916,9.448a1.478,1.478,0,0,1-.045.147c-.008.025-.019.05-.028.074a1.815,1.815,0,0,1-.086.176c-.013.026-.028.052-.041.077l-.011.016c-.014.025-.028.048-.043.071-.1.164-.216.32-.327.481-.037.052-.074.1-.109.159a.288.288,0,0,1-.021.032c-.019.03-.039.062-.057.1s-.032.052-.046.078-.016.027-.023.04l-.043.08a1.667,1.667,0,0,0-.119.313,3.161,3.161,0,0,0,.34,1.829,5.563,5.563,0,0,1,.27,3.738c-.01.028-.02.057-.031.086s-.03.076-.046.114c-.024.058-.051.115-.081.171a1.236,1.236,0,0,1-1.1.77c-.662-.056-.983-.835-1.586-1.1C1.156,16.665.494,16.854,0,16.569A1.785,1.785,0,0,1,.167,16.2c.089-.158.2-.309.3-.459a2.9,2.9,0,0,0,.4-.723,1.51,1.51,0,0,0,.047-.175.054.054,0,0,0,0-.013c.005-.03.011-.058.015-.088s.008-.057.011-.088a.075.075,0,0,0,0-.015.5.5,0,0,1,.007-.1,4.6,4.6,0,0,0-.1-.968Q.661,12.479.472,11.394A3.282,3.282,0,0,1,.46,9.8C.473,9.762.487,9.726.5,9.69s.031-.072.048-.107A3.75,3.75,0,0,1,.9,9.02q.477-.674,1.023-1.3a2.463,2.463,0,0,0,.6-.937.8.8,0,0,0,.022-.106,2.136,2.136,0,0,0-.164-1.041q-.023-.061-.042-.121c-.042-.119-.084-.24-.12-.362-.012-.039-.023-.08-.034-.12a2.376,2.376,0,0,1-.051-.245,1.694,1.694,0,0,1-.022-.246V4.42a.294.294,0,0,1,.008-.088.86.86,0,0,0,.014-.1c.005-.035.008-.046.013-.069s.015-.07.025-.1a.586.586,0,0,1,.023-.082c.005-.022.012-.044.018-.065l.026-.077.041-.112c.013-.037.028-.074.043-.111.075-.192.161-.385.236-.57a3.215,3.215,0,0,0,.109-.326h0a.31.31,0,0,1,.016-.064A.612.612,0,0,0,2.7,2.592a.682.682,0,0,0,.016-.081c.007-.036.014-.073.018-.11s.008-.074.011-.112,0-.074,0-.111a1.22,1.22,0,0,0-.057-.385.9.9,0,0,0-.058-.148h0Q2.6,1.6,2.568,1.55c-.128-.2-.327-.353-.444-.562a.844.844,0,0,1-.1-.415A.763.763,0,0,1,2.032.455.722.722,0,0,1,2.06.338.3.3,0,0,1,2.076.293L2.1.246A.519.519,0,0,1,2.13.191c.01-.013.019-.026.029-.038a.456.456,0,0,1,.51-.127l.057.018a2.153,2.153,0,0,1,.385.161,2.68,2.68,0,0,1,.923.832,4.05,4.05,0,0,1,.637,2.027,2.972,2.972,0,0,1-.047.909.28.28,0,0,1-.009.039c-.008.029-.015.058-.025.086a5.2,5.2,0,0,1-.21.514h0a2.128,2.128,0,0,0-.146.433,2.906,2.906,0,0,0,.277,1.465,10.141,10.141,0,0,1,.375,1.383A3.191,3.191,0,0,1,4.916,9.448Z" transform="translate(55 42)" fill="#965d7b"/><g transform="translate(55 43)" opacity="0.1"><path d="M0,.609A4.751,4.751,0,0,0,.211.119C.224.08.236.04.246,0A3.375,3.375,0,0,0,0,.609Z" transform="translate(4.443 3.666)"/><path d="M.545,1.326a1.312,1.312,0,0,1,.09,1.118c.008-.02.017-.039.025-.059A1.532,1.532,0,0,0,.68.957C.551.767.351.621.236.423A.779.779,0,0,1,.136,0a.711.711,0,0,0-.03.793C.216.991.416,1.136.545,1.326Z" transform="translate(2.096 0.039)"/><path d="M.013,1.456c0,.02-.009.04-.013.061C.22,1.09.608.728.8.286A1.664,1.664,0,0,0,.895,0C.638.5.151.912.013,1.456Z" transform="translate(4.093 8.793)"/><path d="M4.578.447A1.311,1.311,0,0,1,3.4,1.34C2.735,1.288,2.415.547,1.812.294,1.3.08.656.246.167,0A1.706,1.706,0,0,0,0,.354c.493.274,1.154.091,1.677.31.6.253.923.994,1.584,1.047A1.314,1.314,0,0,0,4.443.816,3.241,3.241,0,0,0,4.584.432Z" transform="translate(0.055 15.278)"/><path d="M.483,3.782a3.116,3.116,0,0,1,.059,1.21,1.675,1.675,0,0,0,.087-.2A2.711,2.711,0,0,0,.618,3.413Q.431,2.382.242,1.35A3.353,3.353,0,0,1,.184,0,1.725,1.725,0,0,0,.1.206,2.976,2.976,0,0,0,.107,1.719Q.3,2.752.483,3.782Z" transform="translate(0.428 8.997)"/><path d="M.545,2.63C.738,1.923.145,1.229.134.5A1.739,1.739,0,0,1,.213,0,2.2,2.2,0,0,0,0,.871C.007,1.566.548,2.228.431,2.9A1.242,1.242,0,0,0,.545,2.63Z" transform="translate(2.172 3.335)"/></g><path d="M44.828,1.4a8.028,8.028,0,0,1-3.365,4.518,17.681,17.681,0,0,0-3.074,3.343c-.541,1.142-2.159.825-2.823,0s-2.742-.51-2.742-.51l-3.158.235s-5.722.718-7.643-.539a6.633,6.633,0,0,0-3.2-1.267,10.58,10.58,0,0,1-3.2.707,17.278,17.278,0,0,0-2.4.322c-.441.087-.826.175-1.1.237s-.441.108-.441.108l-4.23-.4-4-.382L1.3,7.49.73,6.323.185,5.2,0,4.819.259.814H7.071s7.1.35,8.017.35H15.3a3.773,3.773,0,0,1,2.99.628,4.85,4.85,0,0,0,.739.317C21.972,3.149,30.252,4.5,30.252,4.5l5.361-.315s3.014-1.039,4.714-1.723a6.2,6.2,0,0,0,1.1-.516C41.879,1.554,45.866-1.865,44.828,1.4Z" transform="translate(33 58)" fill="#ffc1c7"/><path d="M2.575,4.206,2.9,5.386,1.788,6,.723,5.881l-.54-1.2L0,4.275.256,0H7C5.593.129,2.575,4.206,2.575,4.206Z" transform="translate(33 58)" opacity="0.1"/><path d="M10.484,7.2l.322,1.184L9.7,9,6.919,8.684l-1.5-1.247C2.966,3.334,0,3.316,0,3.316A2.18,2.18,0,0,0,.352,2.257a7.124,7.124,0,0,1,.54-1.8L.945.432C1.132.338,1.767.014,1.807,0c0,0,12.6,2.1,12.841,2.179a.292.292,0,0,1,.146.14A2.175,2.175,0,0,1,15,2.974C13.67,2.848,10.484,7.2,10.484,7.2Z" transform="translate(25 55)" fill="#565988"/><path d="M12,3.739a7.265,7.265,0,0,0-1.137.067c-.626.095-1.227.317-.961.833.5.978-2.685,2.7-2.685,2.7L2.769,10,0,6.087,1.428,2.917,5.412,1.039,7.6.062A5.6,5.6,0,0,0,9.22.339a1.345,1.345,0,0,0,.893-.277C10.783-.564,12,3.739,12,3.739Z" transform="translate(38 42)" fill="#ffc1c7"/><path d="M2,3.93A3.53,3.53,0,0,0,1.191,4,4.432,4.432,0,0,1,0,.839C0,.677.007.516.021.356A.773.773,0,0,0,.656.065C1.134-.592,2,3.93,2,3.93Z" transform="translate(48 42)" opacity="0.1"/><path d="M8,4A4,4,0,0,1,4,8a3.949,3.949,0,0,1-.554-.039A4,4,0,0,1,4,0a4.327,4.327,0,0,1,.458.026A4,4,0,0,1,8,4Z" transform="translate(48 38)" fill="#ffc1c7"/><path d="M21,.39c0,.425-2.595,1.288-4.832,1.954a15.855,15.855,0,0,1-4.873.616,1.633,1.633,0,0,0-.4.031c-.614.142-8.593-1.5-8.593-1.5A6.994,6.994,0,0,1,0,0,110.7,110.7,0,0,0,11.06,2.172l5.282-.285S19.312.944,20.986.323A.111.111,0,0,1,21,.39Z" transform="translate(52 60)" opacity="0.1"/><path d="M5.95,0s.573,1.49,1.309,1.854A4.239,4.239,0,0,1,9.345,5.58S9.1,6.108,9.877,7.2s2.659,3.483,2.659,3.483a36.335,36.335,0,0,1,5.071,2.147h0a14.486,14.486,0,0,1,2.83.7,5.67,5.67,0,0,0,1.747.354c1.268,0,7.812-1.7,7.812-.851,0,.484-2.593,1.466-4.83,2.223a14.065,14.065,0,0,1-4.87.7,1.475,1.475,0,0,0-.4.035c-.613.161-8.59-1.7-8.59-1.7a6.755,6.755,0,0,1-2.336-1.745,12.678,12.678,0,0,0-2.33-2.224,31.007,31.007,0,0,1-2-3.807s-.94-.526-3.4.283S.715,4.972.715,4.972L3.455,1.817Z" transform="translate(43 46)" fill="#ffc1c7"/><path d="M15,6.851l-.834-2.1A13.355,13.355,0,0,0,12.008,6.52,6.57,6.57,0,0,1,9.853,8.294c-.479.121-2.114.982-2.792-.788s-.4-2.966.239-3.543S12.257.67,12.257.67L11.69.625S7.741,2.054,6.5,1.4c0,0-2.195.379-2.673-.446S2.9,0,2.9,0L0,4.049,1.038,13H3.71l2.872-1.155,3.83-.33A8.855,8.855,0,0,0,12.05,9.452C12.249,8.792,13.767,6.644,15,6.851Z" transform="translate(35 41)" opacity="0.1"/><path d="M15,6.852l-.834-2.1a13.355,13.355,0,0,0-2.158,1.766A6.558,6.558,0,0,1,9.853,8.3c-.479.121-2.114.982-2.792-.788s-.4-2.966.239-3.543S12.257.794,12.257.794L11.69.626S7.741,2.054,6.5,1.4c0,0-2.195.379-2.673-.446S2.9,0,2.9,0L0,4.049,1.038,13H3.71l2.872-1.155,3.83-.33A8.846,8.846,0,0,0,12.05,9.453C12.249,8.793,13.767,6.644,15,6.852Z" transform="translate(35 41)" fill="#565988"/><path d="M14,2.152c-.048.216-.086.355-.086.355a10.728,10.728,0,0,0-2.249.323,12.955,12.955,0,0,1-4.145,0,24.954,24.954,0,0,1-3.576-.661C2.157,1.685-.186,1.111.012.514.025.479.037.44.053.4.241.314.88.013.921,0c0,0,12.681,1.952,12.928,2.026A.286.286,0,0,1,14,2.152Z" transform="translate(25 55)" opacity="0.1"/><path d="M22.3,4.97,23,6.6s-1.076-.589-2.45,1.827-1.556,2.759-1.556,2.759-.966.681-.724,1.548c0,0-2.863,1.017-4.75.345a7.883,7.883,0,0,0-.377,2.206,13.13,13.13,0,0,1,.007,1.425s.538-.421-1.5-.015a18.2,18.2,0,0,1-4.063.288,29.055,29.055,0,0,1-3.3-.756C2.532,15.714-.186,15.846.01,15.211a14.727,14.727,0,0,1,.846-1.839s.468-.277.448-.546.861-1.044.861-1.044.543-.467.468-.857S3.162,9.9,3.162,9.9L4.31,7.575s.966-2.167,1.631-2.26S7.829,3.226,7.829,3.226,10,1.419,10.019,1.044,11.106,0,11.106,0a1.777,1.777,0,0,0,1.613,1.593c1.44.063,3.343,0,3.343,0L19.8.686a14.478,14.478,0,0,1-2.015,1.636c-.378.109-1.515.951-2.094,1.11a2.429,2.429,0,0,0-1.71,2.14,3.642,3.642,0,0,0,.438,1.757S15.6,9.642,16.774,9.365a2.279,2.279,0,0,0,1.843-.733A44.2,44.2,0,0,1,22.3,4.97Z" transform="translate(26 41)" opacity="0.1"/><path d="M10,.48,9.894.537,9.772.6h0L7.7,1.3l-2.845.556L3.054,2,0,.521S.353.29.872,0A1.6,1.6,0,0,0,2.521,1.028c1.495.045,3.473,0,3.473,0L9.922.488Z" transform="translate(37 41)" opacity="0.1"/><path d="M22.3,5.014,23,6.786S21.81,6.067,20.443,8.5s-1.547,2.78-1.547,2.78a1.973,1.973,0,0,0-.6,1.687s-2.6,1.377-4.477.7c0,0-.045.818,0,1.713a8.752,8.752,0,0,1-.255,2.089,9.68,9.68,0,0,0-2.194.346,11.535,11.535,0,0,1-4.04,0,22.316,22.316,0,0,1-3.485-.707C2.1,16.593-.181,15.98.011,15.34a14.636,14.636,0,0,1,.841-1.854s.465-.28.451-.55.856-1.053.856-1.053.541-.466.465-.863.526-1.038.526-1.038l1.142-2.34s.961-2.185,1.622-2.279S7.793,3.258,7.793,3.258,9.959,1.43,9.973,1.053,11.055,0,11.055,0s.171,1.542,1.6,1.606,3.326,0,3.326,0L19.819.818A17.4,17.4,0,0,1,17.7,2.341c-.375.11-1.507.958-2.083,1.119a2.454,2.454,0,0,0-1.7,2.169A3.676,3.676,0,0,0,14.346,7.4s1.171,2.325,2.344,2.043A2.251,2.251,0,0,0,18.522,8.7,42.639,42.639,0,0,1,22.3,5.014Z" transform="translate(26 41)" fill="#e8f4ff"/><path d="M0,0S1.09,2.625,1.591,2.911s.4-.2.4-.2A17.277,17.277,0,0,1,0,0Z" transform="translate(37 51)" opacity="0.1"/><path d="M0,0S1.15,2,2,2Z" transform="translate(35 54)" opacity="0.1"/><path d="M0,0S1.762,5.56,5,6C5,6,.771,2.89,0,0Z" transform="translate(30 50)" opacity="0.1"/><path d="M0,0S3.1,2.31,5,1.965A12.612,12.612,0,0,1,0,0Z" transform="translate(30 55)" opacity="0.1"/><path d="M0,0S3.1,2.311,5,1.965A12.611,12.611,0,0,1,0,0Z" transform="translate(29 59)" opacity="0.1"/><path d="M0,0S3.1,2.31,5,1.965A12.608,12.608,0,0,1,0,0Z" transform="translate(30 61)" opacity="0.1"/><path d="M0,0S3.1,2.314,5,1.964A12.594,12.594,0,0,1,0,0Z" transform="translate(30 58)" opacity="0.1"/><path d="M2,0,0,1.665.275,2,2,0Z" transform="translate(41 46)" opacity="0.1"/><path d="M5,3.984A3.888,3.888,0,0,1,3.744,6.823,4.447,4.447,0,0,1,.709,8a4.53,4.53,0,0,1-.594-.039.969.969,0,0,0,.158-.224c.127-.332-.406-.678-.239-1,.086-.169.319-.212.519-.217A.871.871,0,0,0,1.12,6.4c.168-.151.144-.4.187-.614a1.545,1.545,0,0,1,.576-.817A7.493,7.493,0,0,0,2.674,4.3a2.385,2.385,0,0,0,.559-1.407,1.463,1.463,0,0,0-.185-.95,2.466,2.466,0,0,0-.871-.64A2.348,2.348,0,0,1,1.419.683,1,1,0,0,1,1.2,0,4.124,4.124,0,0,1,5,3.984Z" transform="translate(51 38)" opacity="0.1"/><path d="M5.991,4.465a.752.752,0,0,1-.067.188L5.9,4.706l-.052.087a.9.9,0,0,0-.156.39,1.357,1.357,0,0,0,.131.5l.009.029h0q.011.035.019.072a.908.908,0,0,1-.033.491h0a1.507,1.507,0,0,1-.266.47c-.215.259-.486.454-.7.71-.162.188-.293.411-.454.6a2.638,2.638,0,0,1-1.453.827A5.956,5.956,0,0,1,1.654,9H1.287a.366.366,0,0,1-.169-.029A.628.628,0,0,1,.96,8.8a1.259,1.259,0,0,0-.929-.368.284.284,0,0,1,.056-.2,1.179,1.179,0,0,0,.139-.236C.332,7.662-.113,7.321.028,7A.269.269,0,0,1,.08,6.925a.3.3,0,0,1,.046-.042.607.607,0,0,1,.333-.094A1.446,1.446,0,0,0,.65,6.781a.426.426,0,0,0,.274-.119h0c.139-.148.12-.4.155-.606a1.545,1.545,0,0,1,.479-.809,6.547,6.547,0,0,0,.657-.659A2.627,2.627,0,0,0,2.68,3.2a1.682,1.682,0,0,0-.154-.941A1.785,1.785,0,0,0,1.9,1.692l-.1-.066a2.392,2.392,0,0,1-.5-.43A1.734,1.734,0,0,1,1.177,1,1.145,1.145,0,0,1,.993.34.256.256,0,0,1,1,.3c.05-.242.264-.245.468-.275C1.522.014,1.577.008,1.631,0a1.907,1.907,0,0,1,.243,0,2.079,2.079,0,0,1,.992.3c.113.069.221.149.338.208a7.412,7.412,0,0,0,.877.258A2.473,2.473,0,0,1,5.391,2.1a8.51,8.51,0,0,1,.566,1.913,1.166,1.166,0,0,1,.034.457Z" transform="translate(51 38)" fill="#965d7b"/><path d="M12.968,3.765a.823.823,0,0,1-.092.225S12.467,4,11.866,4a20.378,20.378,0,0,1-2.94-.2A10.18,10.18,0,0,0,7.22,3.71L3.249,3.332,1.1,3.059,0,.8c.638.033,1.187.01,1.187.01A2.278,2.278,0,0,1,4.16.368a6.362,6.362,0,0,0,1.858.847c.055,0,1.881.036,3.055.059a5.78,5.78,0,0,1,2.6.653C13.04,2.648,13.06,3.4,12.968,3.765Z" transform="translate(34 62)" opacity="0.1"/><path d="M10.545.843l-.909.35a8.055,8.055,0,0,0-6.2-.966C-.246,1.078,0,3.349,0,3.349s.145,2.783,1.2,3.738,1.727,1,2.33,1.72S7.262,9.854,7.262,9.854a85.771,85.771,0,0,0,9.509,0C20.1,9.527,21.6,9.527,21.6,9.527a24.782,24.782,0,0,1,5.3-.175,22.286,22.286,0,0,0,3.975.219s.687-1.193-1.212-2.321a5.338,5.338,0,0,0-2.617-.735c-1.183-.026-3.023-.066-3.079-.066A6.089,6.089,0,0,1,22.1,5.5c-.624-.531-1.768-.728-3,.495,0,0-2.726.131-3.1-.589a31.969,31.969,0,0,0-2.31-2.98Z" transform="translate(15 57)" fill="#ffc1c7"/><path d="M5.123,3.7s-.019.346.76.289C6.6,3.94,3.749,1.383,3.749,1.383L.84,0,0,.307S2.816-.025,5.123,3.7Z" transform="translate(25 58)" opacity="0.1"/><path d="M5.124,3.7s-.019.346.76.289c.72-.053-2.134-2.611-2.134-2.611L.84,0,0,.307S2.817-.025,5.124,3.7Z" transform="translate(25 58)" fill="#565988"/><path d="M0,.119A4.046,4.046,0,0,1,2.27.2,14.78,14.78,0,0,0,3.756.544a12.5,12.5,0,0,1,2.32.65A10.5,10.5,0,0,0,9,2" transform="translate(22 60)" fill="none" stroke="#000" stroke-miterlimit="10" stroke-width="1" opacity="0.1"/><path d="M1.557,9a.368.368,0,0,1-.173-.029A.609.609,0,0,1,1.222,8.8,1.309,1.309,0,0,0,.27,8.428c-.028-.164.146-.283.2-.437C.578,7.662.122,7.32.265,7A.465.465,0,0,1,.708,6.79a.654.654,0,0,0,.483-.129c.143-.149.123-.4.16-.607a1.536,1.536,0,0,1,.49-.81,6.643,6.643,0,0,0,.674-.659,2.6,2.6,0,0,0,.476-1.393,1.663,1.663,0,0,0-.158-.947,2.174,2.174,0,0,0-.742-.634A2.1,2.1,0,0,1,1.446,1,1.064,1.064,0,0,1,1.264.3c.048-.231.272-.245.48-.275C1.806.012,1.867.006,1.929,0a2.218,2.218,0,0,0-.418.019C1.3.052,1.078.055,1.03.3a1.048,1.048,0,0,0,.183.7,2.1,2.1,0,0,0,.646.613A2.284,2.284,0,0,1,2.6,2.24a1.635,1.635,0,0,1,.158.947A2.558,2.558,0,0,1,2.278,4.58a6.348,6.348,0,0,1-.673.659,1.545,1.545,0,0,0-.491.81c-.037.211-.017.459-.159.607a.66.66,0,0,1-.484.129A.465.465,0,0,0,.027,7c-.14.316.312.659.2.987-.053.156-.226.273-.2.437a1.286,1.286,0,0,1,.952.367.586.586,0,0,0,.162.174.363.363,0,0,0,.173.029H1.7Z" transform="translate(51 38)" opacity="0.1"/><path d="M.045,2h0c.032-.136.069-.289.1-.451A11.137,11.137,0,0,0,.385.238,1.521,1.521,0,0,0,.076.06C.085.039.094.019.1,0L.03.039V.159C.024.361.013.79.006,1.166v.017c-.006.3-.009.56,0,.654h0Z" transform="translate(57.807 42)" fill="#565988"/><ellipse cx="4" cy="0.5" rx="4" ry="0.5" transform="translate(80 64)" fill="#6c63ff" opacity="0.1"/><path d="M3.616,1.493a.95.95,0,0,0,.372-.466.4.4,0,0,0-.26-.475.821.821,0,0,0-.686.2,1,1,0,0,1-.668.268A.764.764,0,0,0,2.685.23.306.306,0,0,0,2.593.069a.489.489,0,0,0-.531.026,1.514,1.514,0,0,0-.648,1.377A2.144,2.144,0,0,1,1.406.9.544.544,0,0,0,1.149.4.905.905,0,0,0,.758.326.915.915,0,0,0,.124.478a.456.456,0,0,0,.026.647,2.432,2.432,0,0,0,.656.437,1.383,1.383,0,0,1,.469.372A.372.372,0,0,1,1.309,2H2.73A4.042,4.042,0,0,0,3.616,1.493Z" transform="translate(82 62)" fill="#6c63ff"/><ellipse cx="4" cy="0.5" rx="4" ry="0.5" transform="translate(93 66)" fill="#6c63ff" opacity="0.1"/><path d="M3.616,1.493a.95.95,0,0,0,.372-.466A.4.4,0,0,0,3.727.552a.819.819,0,0,0-.687.2,1,1,0,0,1-.668.268A.764.764,0,0,0,2.687.229.307.307,0,0,0,2.6.069a.488.488,0,0,0-.531.026,1.513,1.513,0,0,0-.648,1.376A2.136,2.136,0,0,1,1.407.9.545.545,0,0,0,1.15.4.9.9,0,0,0,.758.326.92.92,0,0,0,.124.478a.456.456,0,0,0,.026.647,2.434,2.434,0,0,0,.656.437,1.376,1.376,0,0,1,.469.372A.32.32,0,0,1,1.31,2H2.732a4.075,4.075,0,0,0,.883-.507Z" transform="translate(95 64)" fill="#6c63ff"/><ellipse cx="4" cy="0.5" rx="4" ry="0.5" transform="translate(85 71)" fill="#6c63ff" opacity="0.1"/><path d="M3.615,1.493a.95.95,0,0,0,.372-.466.4.4,0,0,0-.26-.475.822.822,0,0,0-.688.2,1,1,0,0,1-.668.268A.764.764,0,0,0,2.686.23.306.306,0,0,0,2.595.069a.49.49,0,0,0-.531.026,1.514,1.514,0,0,0-.648,1.377A2.142,2.142,0,0,1,1.406.9.544.544,0,0,0,1.149.4.9.9,0,0,0,.759.326.918.918,0,0,0,.124.478a.456.456,0,0,0,.025.647,2.434,2.434,0,0,0,.657.437,1.377,1.377,0,0,1,.469.372A.28.28,0,0,1,1.309,2H2.732a4.043,4.043,0,0,0,.883-.507Z" transform="translate(87 69)" fill="#6c63ff"/><ellipse cx="4" cy="0.5" rx="4" ry="0.5" transform="translate(4 63)" fill="#6c63ff" opacity="0.1"/><path d="M3.616,1.493a.945.945,0,0,0,.372-.466.4.4,0,0,0-.26-.475.822.822,0,0,0-.688.2,1,1,0,0,1-.668.268A.763.763,0,0,0,2.687.229.312.312,0,0,0,2.6.069a.49.49,0,0,0-.532.026,1.513,1.513,0,0,0-.648,1.376A2.216,2.216,0,0,1,1.406.9.548.548,0,0,0,1.15.4.906.906,0,0,0,.759.326.919.919,0,0,0,.124.478a.456.456,0,0,0,.025.647,2.425,2.425,0,0,0,.657.437,1.376,1.376,0,0,1,.469.372A.372.372,0,0,1,1.31,2H2.735a4.072,4.072,0,0,0,.88-.507Z" transform="translate(6 61)" fill="#6c63ff"/><ellipse cx="4" cy="0.5" rx="4" ry="0.5" transform="translate(0 70)" fill="#6c63ff" opacity="0.1"/><path d="M3.615,1.493a.95.95,0,0,0,.373-.466.4.4,0,0,0-.26-.475.822.822,0,0,0-.688.2,1,1,0,0,1-.669.268A.765.765,0,0,0,2.689.229.307.307,0,0,0,2.6.069a.489.489,0,0,0-.532.026,1.513,1.513,0,0,0-.649,1.377A2.139,2.139,0,0,1,1.408.9.544.544,0,0,0,1.151.4.893.893,0,0,0,.76.326.912.912,0,0,0,.124.478a.456.456,0,0,0,.025.647,2.437,2.437,0,0,0,.657.437,1.369,1.369,0,0,1,.47.372A.28.28,0,0,1,1.311,2H2.734a4.078,4.078,0,0,0,.881-.507Z" transform="translate(2 69)" fill="#6c63ff"/></svg>