<svg xmlns="http://www.w3.org/2000/svg" width="130" height="71" viewBox="0 0 130 71"><path d="M89.128,2.373q18.2-.2,36.394.231a12.767,12.767,0,0,1,3.048.316c.922.259,1.631.816,1.379,1.351q-7.1.2-14.221.122c-1.033.475-2.168,1.191-1.533,1.832a3.985,3.985,0,0,0,2.473.576c1.718,0,3.443-.263,5.136-.108s3.382.991,2.886,1.859c-.377.659-1.805.985-3.105,1.043s-2.631-.063-3.9.093a29.83,29.83,0,0,0-3.384.8,33.428,33.428,0,0,1-5.7.667c-14.931.856-29.986.849-45,.842a130.827,130.827,0,0,1-18.115-.845c-3.347-.475-6.554-1.212-9.943-1.6a107.965,107.965,0,0,0-12.372-.381q-10.9.036-21.785-.394c-.54-.021-1.2-.094-1.348-.369-.17-.321.52-.571,1.1-.7A67.98,67.98,0,0,1,11.181,6.307a31.687,31.687,0,0,0,5.057-.543c1.577-.372,2.954-1.154,2.939-2.065,0-.278-.129-.575.118-.821a3.241,3.241,0,0,1,1.832-.436c7.722-.394,15.486-.558,23.243-.492,2.729.023,5.468.075,8.178-.1,2.22-.141,4.394-.432,6.582-.675C62.066.85,74.846-.844,76.711.53c1.4,1.029-1.486,1.251,2.257,1.671A85.484,85.484,0,0,0,89.128,2.373Z" transform="translate(0 59)" fill="#f2f2f2"/><path d="M2.194,7.224S-2.265,16,1.53,16s51.617.189,52.945-2.264c.931-1.718.418-7.836.027-11.345A2.694,2.694,0,0,0,51.671,0C41.328.572,2.691,2.675,2.859,2.413c.332-.519.095-.377.095-.377S1.435,6.846,2.194,7.224Z" transform="translate(40 48)" fill="#3f3d56"/><path d="M52.5,2.4A2.707,2.707,0,0,0,49.655,0C39.265.575.449,2.69.617,2.426c.334-.522.1-.379.1-.379S.372,3.126.093,4.306c.04,0,.069.033-.06.258L0,4.717c1.555.153,38.837-1.878,48.988-2.436a2.707,2.707,0,0,1,2.845,2.4A56.986,56.986,0,0,1,52.265,14a.569.569,0,0,0,.208-.192C53.408,12.08,52.892,5.929,52.5,2.4Z" transform="translate(42 48)" opacity="0.1"/><path d="M9.978,5.905c-.5-.149-1.142-.341-1.085-.653.031-.166.262-.3.43-.435.323-.269.41-.647.063-.907A1.485,1.485,0,0,0,7.9,3.89c-.158.141-.148.318-.229.478-.254.5-1.28.716-2.152.91S3.668,5.831,3.75,6.346c.089.562,1.435,1.06.893,1.539-.2.174-.609.271-.7.469-.062.14.062.282.183.41l.857.908c.341.361.692.754.578,1.156-.226.8-2.065,1.1-3.523,1.012a3.024,3.024,0,0,0-1.528.138.471.471,0,0,0-.188.647A2.776,2.776,0,0,0,2.33,13.906C1.22,14.116.784,15,1.55,15.493a2.367,2.367,0,0,1-1.359.037c-.379.336-.156.8.324,1.089a6.613,6.613,0,0,0,1.821.615l-.617.555a2.674,2.674,0,0,0,2.061.005,4.577,4.577,0,0,1,2.084-.386c.683.1,1.2.542,1.9.467a1.217,1.217,0,0,0,.964-.679l.714-1.223c1.016.153,2.085-.517,1.677-1.051,1.137.117,2.257-.593,1.884-1.2a3.524,3.524,0,0,1,1.241,1.519,1.435,1.435,0,0,0,.4.71,1.385,1.385,0,0,0,1.174.2c-.207.387-.375.838.051,1.166s1.656.235,1.6-.167a6.1,6.1,0,0,0,2.191.541c.812.02,1.7-.277,1.775-.722a11.761,11.761,0,0,0,3.548.549c.1-.3.819-.394,1.354-.321a11.564,11.564,0,0,0,1.583.248c.551,0,1.145-.319.862-.579a11.844,11.844,0,0,0,3.533.171c1.113-.114,2.168-.384,3.295-.442a8.153,8.153,0,0,1,3.354.509,2.005,2.005,0,0,0,1.235.22,1.478,1.478,0,0,0,.5-.324c.673-.491,2.05-.4,3.112-.2a6.64,6.64,0,0,0,3.228.084c.351-.129.61-.328.983-.436,1.338-.387,2.939.605,4.359.32a8.924,8.924,0,0,1,1.328-.343c.869-.049,1.443.518,2.288.64.877.126,1.827-.387,1.613-.871a8.161,8.161,0,0,0,2.488-.333l-.4-.689c.992-.015,1.721-.7,1.262-1.182a2.545,2.545,0,0,0,1.985-1.238c.2-.565-.181-1.183-.973-1.561a4.616,4.616,0,0,1-1.349-.686c-.192-.221-.164-.478-.239-.719a2.263,2.263,0,0,0-1.791-1.177A10.007,10.007,0,0,1,57.4,8.386c-.361-.122-.621-.386-.413-.589a4.261,4.261,0,0,1,.46-.268c.556-.4-.4-.9-1.212-1.117l1.945-.061L58.6,4.53c-.769.6-2.765.475-3.265-.207A1.9,1.9,0,0,0,57.1,3.909a1.265,1.265,0,0,0,.149-1.169.567.567,0,0,0-.324-.464c-.19-.087-.494-.124-.556-.255s.183-.253.219-.391c.07-.264-.561-.38-.987-.508C54.594.82,54.107-.027,52.963,0A1.388,1.388,0,0,0,51.51,1.486,1.4,1.4,0,0,1,49.99,2.934a3.21,3.21,0,0,1-1.211-.312L45.525,1.274A8,8,0,0,0,44.189.813,10.82,10.82,0,0,0,42.1.633l-4.551-.1a2.2,2.2,0,0,0-.69.057,1.29,1.29,0,0,0-.5.358,3.858,3.858,0,0,1-3.2.481c-.285-.084-.541-.2-.843-.262a9,9,0,0,0-2.939.3c-1.621.217-3.635-.157-4.8.5-.39.218-.6.517-.957.749a1.834,1.834,0,0,1-1.468.215A1.594,1.594,0,0,1,21.96,4.2a2.115,2.115,0,0,1-1.828.618c-.4-.1-.37-.427-.18-.647s.482-.444.387-.682-.524-.373-.846-.537-.536-.476-.195-.628c-.23-.285-1.058-.25-1.422-.011a1.068,1.068,0,0,0-.44.885.982.982,0,0,1-.548.859c-.719.354-2.1.17-2.575.632-.151.147-.16.323-.247.485-.387.722-2.056.909-3.42.968a1.549,1.549,0,0,0-.019.455C11.094,6.4,10.316,6.005,9.978,5.905Z" transform="translate(37 36)" fill="#61ab43"/><path d="M.183.3a.617.617,0,0,1-.09.629A.539.539,0,0,1,0,1L.747.979,1,0A1.624,1.624,0,0,1,.155.207.556.556,0,0,1,.183.3Z" transform="translate(94 41)" opacity="0.1"/><path d="M2,.956A1.6,1.6,0,0,0,1.171,0,1.152,1.152,0,0,1,0,.159,1.813,1.813,0,0,0,2,.956Z" transform="translate(92 43)" opacity="0.1"/><path d="M1.753,0,1.724.138,0,.2C.722.418,1.568.912,1.075,1.3a3.709,3.709,0,0,0-.408.265c-.185.2.046.462.366.583a8.063,8.063,0,0,0,1.06.229A2.023,2.023,0,0,1,3.681,3.544a1.758,1.758,0,0,0,.212.712,3.956,3.956,0,0,0,1.2.679c.04.021.078.043.116.066a1.639,1.639,0,0,0,.747-.838,1.359,1.359,0,0,0-.863-1.544,3.956,3.956,0,0,1-1.2-.679,1.758,1.758,0,0,1-.212-.712A2.023,2.023,0,0,0,2.093.064C1.982.039,1.867.019,1.753,0Z" transform="translate(94 44)" opacity="0.1"/><path d="M1.061,1A1.312,1.312,0,0,1,2,.509,3.613,3.613,0,0,1,.742.057,2.362,2.362,0,0,1,.164,0C-.161.238.03.566.443.774A3.407,3.407,0,0,0,1.061,1Z" transform="translate(38 53)" opacity="0.1"/><path d="M.911,7.331a6.907,6.907,0,0,1,.84-.227c.863-.18,1.878-.384,2.129-.848.08-.149.071-.314.227-.446a1.547,1.547,0,0,1,1.473.018c.343.242.257.595-.063.845-.166.13-.395.251-.425.406-.057.292.574.471,1.073.609A2.2,2.2,0,0,1,6.816,8c0-.031.008-.062.012-.092,1.35-.055,3-.229,3.384-.9.086-.151.095-.316.244-.452.472-.43,1.836-.259,2.547-.589a.911.911,0,0,0,.542-.8.976.976,0,0,1,.435-.826,1.435,1.435,0,0,1,1.406.01c-.338.141-.126.432.192.585s.744.281.837.5-.195.431-.383.636-.219.508.178.6A2.167,2.167,0,0,0,18.02,6.1a1.414,1.414,0,0,0,.189-1.182,1.909,1.909,0,0,0,1.452-.2c.357-.217.562-.5.947-.7,1.156-.61,3.148-.262,4.751-.464a9.421,9.421,0,0,1,2.907-.281c.3.059.552.166.834.244a4.012,4.012,0,0,0,3.164-.449,1.276,1.276,0,0,1,.494-.334,2.306,2.306,0,0,1,.683-.053l4.5.093a11.338,11.338,0,0,1,2.067.168,8.242,8.242,0,0,1,1.322.43l3.218,1.258a3.33,3.33,0,0,0,1.2.291,1.347,1.347,0,0,0,1.5-1.351,1.328,1.328,0,0,1,1.437-1.385c1.132-.026,1.613.764,2.608,1.045.422.119,1.046.228.976.474-.032.114-.228.215-.226.324a1.524,1.524,0,0,0,.733-.381,1.123,1.123,0,0,0,.147-1.09.531.531,0,0,0-.321-.433c-.188-.081-.488-.115-.55-.238s.181-.236.217-.365c.069-.246-.555-.355-.976-.474C50.3.764,49.822-.025,48.691,0a1.328,1.328,0,0,0-1.437,1.385,1.347,1.347,0,0,1-1.5,1.351,3.33,3.33,0,0,1-1.2-.291L41.332,1.187a8.242,8.242,0,0,0-1.322-.43A11.339,11.339,0,0,0,37.944.59L33.442.5a2.306,2.306,0,0,0-.683.053,1.276,1.276,0,0,0-.494.334,4.013,4.013,0,0,1-3.164.449c-.282-.078-.535-.185-.834-.244a9.421,9.421,0,0,0-2.907.281c-1.6.2-3.6-.146-4.751.464-.385.2-.59.482-.947.7a1.909,1.909,0,0,1-1.452.2,1.414,1.414,0,0,1-.189,1.182,2.167,2.167,0,0,1-1.809.576c-.4-.1-.366-.4-.178-.6s.476-.414.383-.636-.519-.348-.837-.5-.53-.444-.192-.585a1.435,1.435,0,0,0-1.406-.01.976.976,0,0,0-.435.826.911.911,0,0,1-.542.8c-.711.33-2.076.159-2.547.589-.15.137-.159.3-.244.452-.383.673-2.034.847-3.384.9,0,.031-.007.061-.012.092a2.2,2.2,0,0,0-.65-.311c-.5-.139-1.13-.318-1.073-.609.03-.155.259-.276.425-.406.32-.251.406-.6.063-.845a1.547,1.547,0,0,0-1.473-.018c-.156.132-.146.3-.227.446-.251.464-1.266.668-2.129.848s-1.828.516-1.747,1C.092,6.433,1.381,6.891.911,7.331Z" transform="translate(41 36)" opacity="0.1"/><path d="M1.939,1.778a2.118,2.118,0,0,0-.635.194c.123,0,.245.01.363.016,1.371.068,3.1-.164,3.313-.773C5.087.909,4.756.608,4.436.333L4.05,0A8.413,8.413,0,0,1,1.667.2,3.465,3.465,0,0,0,.23.306.327.327,0,0,0,.053.8,2.7,2.7,0,0,0,1.939,1.778Z" transform="translate(37 48)" opacity="0.1"/><ellipse cx="14.5" cy="9.5" rx="14.5" ry="9.5" transform="translate(54 28)" fill="#ea565c"/><path d="M4.753,4.934S-1.5,5.555.339,2.984,4.477-.474,5.581.235A3.505,3.505,0,0,1,6.961,2.9c-.184,0-2.851-1.507-3.771-.355S4.753,4.934,4.753,4.934Z" transform="translate(59 32)" fill="#fff" opacity="0.2"/><path d="M3.926,0S9.148,3.776,5.98,4.646.442,4.673.08,3.327A4,4,0,0,1,.839.176C.98.3,2,3.382,3.489,3.057S3.926,0,3.926,0Z" transform="translate(65 37)" fill="#fff" opacity="0.2"/><path d="M0,4.438S.4-1.741,2.682.483s2.8,4.608,1.9,5.56a3.62,3.62,0,0,1-2.9.887c.03-.179,1.981-2.512.974-3.6S0,4.438,0,4.438Z" transform="translate(71 30)" fill="#fff" opacity="0.2"/><ellipse cx="14.5" cy="9.5" rx="14.5" ry="9.5" transform="translate(37 27)" fill="#ea565c"/><path d="M4.753,4.934S-1.5,5.555.339,2.984,4.477-.474,5.581.235A3.505,3.505,0,0,1,6.961,2.9c-.184,0-2.851-1.507-3.771-.355S4.753,4.934,4.753,4.934Z" transform="translate(42 31)" fill="#fff" opacity="0.2"/><path d="M3.926,0S9.148,3.776,5.98,4.646.442,4.673.08,3.327A4,4,0,0,1,.839.176C.98.3,2,3.382,3.489,3.057S3.926,0,3.926,0Z" transform="translate(48 36)" fill="#fff" opacity="0.2"/><path d="M0,4.438S.4-1.741,2.682.483s2.8,4.608,1.9,5.56a3.62,3.62,0,0,1-2.9.887c.03-.179,1.981-2.512.974-3.6S0,4.438,0,4.438Z" transform="translate(54 29)" fill="#fff" opacity="0.2"/><path d="M16.949,0c3.18,1.68,5.2,4.2,5.2,7.008,0,5.058-6.537,9.159-14.6,9.159A21.413,21.413,0,0,1,0,14.849,20.35,20.35,0,0,0,9.4,17C17.463,17,24,12.9,24,7.841,24,4.516,21.175,1.6,16.949,0Z" transform="translate(42 29)" opacity="0.1"/><path d="M16.949,0c3.18,1.68,5.2,4.2,5.2,7.008,0,5.058-6.537,9.159-14.6,9.159A21.413,21.413,0,0,1,0,14.849,20.35,20.35,0,0,0,9.4,17C17.463,17,24,12.9,24,7.841,24,4.516,21.175,1.6,16.949,0Z" transform="translate(59 29)" opacity="0.1"/><path d="M1.313,9.22S13.587-4.2,43.654,1.342c23.768,4.382,4.25,11.925-4.97,14.893a32.483,32.483,0,0,1-8.247,1.518C20.034,18.3-6.13,18.79,1.313,9.22Z" transform="translate(42 25)" fill="#714b4f"/><path d="M38.684,7.547A33.985,33.985,0,0,1,30.436,8.99c-8.427.422-27.2.807-30.066-3.9-3.621,7.609,20.246,7.166,30.066,6.675a33.985,33.985,0,0,0,8.247-1.443C45.443,8.253,57.733,3.847,54.455,0,52.247,3.019,43.85,5.966,38.684,7.547Z" transform="translate(42 31)" opacity="0.1"/><path d="M0,0,4,6" transform="translate(68 28)" fill="none" stroke="#000" stroke-miterlimit="10" stroke-width="2" opacity="0.1"/><path d="M0,0,2,5" transform="translate(59 30)" fill="none" stroke="#000" stroke-miterlimit="10" stroke-width="2" opacity="0.1"/><path d="M0,0,5,6" transform="translate(75 28)" fill="none" stroke="#000" stroke-miterlimit="10" stroke-width="2" opacity="0.1"/><path d="M0,4,30,0" transform="translate(59 31)" fill="none" stroke="#000" stroke-miterlimit="10" stroke-width="2" opacity="0.1"/><path d="M0,0,2,2" transform="translate(88 29)" fill="none" stroke="#000" stroke-miterlimit="10" stroke-width="2" opacity="0.1"/><path d="M0,0,1,2" transform="translate(53 33)" fill="none" stroke="#000" stroke-miterlimit="10" stroke-width="2" opacity="0.1"/><path d="M18.136.527S45.577.4,45.829.151,51.871-.233,53,1.4s1.511,2.383,0,2.634S1.772,29.994,1.772,29.994-1,30.245.388,27.486,18.136.527,18.136.527Z" transform="translate(40 22)" fill="#f6c964"/><path d="M22,1.442C22,2.478,17.075,5,11,5S0,2.478,0,1.442,4.925,0,11,0,22,.407,22,1.442Z" transform="translate(47 32)" fill="#61ab43"/><ellipse cx="11" cy="2" rx="11" ry="2" transform="translate(47 32)" fill="#61ab43"/><path d="M22,1.442C22,2.478,17.075,5,11,5S0,2.478,0,1.442,4.925,0,11,0,22,.407,22,1.442Z" transform="translate(60 31)" fill="#61ab43"/><ellipse cx="11" cy="2" rx="11" ry="2" transform="translate(60 30)" fill="#61ab43"/><path d="M22,1.442C22,2.478,17.075,5,11,5S0,2.478,0,1.442,4.925,0,11,0,22,.407,22,1.442Z" transform="translate(74 29)" fill="#61ab43"/><ellipse cx="11" cy="2" rx="11" ry="2" transform="translate(74 29)" fill="#61ab43"/><path d="M2.9,21.44s-4.567-.73-2.23-4.38S3.788,9.318,4.808,8.4c1.14-1.022,24.669-18.941,43,.887a26.4,26.4,0,0,1,4.675,7.167,4.17,4.17,0,0,0,.705,1.175c.743.73,1.381,2.816,0,3.859S11.127,26.6,2.9,21.44Z" transform="translate(41 10)" fill="#3f3d56"/><path d="M1,.5C.853.807.679.981.5,1a.5.5,0,1,1,0-1C.679.019.853.193,1,.5Z" transform="translate(64 15)" fill="#f2f2f2"/><path d="M1,.5C.853.807.679.981.5,1a.5.5,0,0,1,0-1c.179.019.353.193.5.5Z" transform="translate(57 14)" fill="#f2f2f2"/><path d="M1,.9A.457.457,0,0,1,.449.919.987.987,0,0,1,0,.168C.031-.046.278-.057.553.144A1.646,1.646,0,0,1,1,.9Z" transform="translate(77 16)" fill="#f2f2f2"/><path d="M1,.9A.457.457,0,0,1,.449.919.987.987,0,0,1,0,.168C.031-.046.278-.057.553.144A1.646,1.646,0,0,1,1,.9Z" transform="translate(63 10)" fill="#f2f2f2"/><path d="M1,.9A.457.457,0,0,1,.449.919.987.987,0,0,1,0,.168C.031-.046.278-.057.553.144A1.646,1.646,0,0,1,1,.9Z" transform="translate(78 13)" fill="#f2f2f2"/><path d="M1,.5C.853.807.679.981.5,1a.5.5,0,0,1,0-1C.679.019.853.193,1,.5Z" transform="translate(75 13)" fill="#f2f2f2"/><path d="M1,.5C.853.807.679.981.5,1a.5.5,0,1,1,0-1c.179.019.353.193.5.5Z" transform="translate(66 10)" fill="#f2f2f2"/><path d="M1,.5C.853.807.679.981.5,1a.5.5,0,1,1,0-1c.179.019.353.193.5.5Z" transform="translate(74 10)" fill="#f2f2f2"/><path d="M1,.5C.853.807.679.981.5,1a.5.5,0,0,1,0-1c.179.019.353.193.5.5Z" transform="translate(70 15)" fill="#f2f2f2"/><path d="M0,1A1.4,1.4,0,0,1,.344.336c.27-.267.555-.4.635-.3S.905.43.635.7A1.169,1.169,0,0,1,0,1Z" transform="translate(65 13)" fill="#f2f2f2"/><path d="M0,1A1.4,1.4,0,0,1,.344.336c.27-.267.555-.4.635-.3S.905.43.635.7A1.169,1.169,0,0,1,0,1Z" transform="translate(60 12)" fill="#f2f2f2"/><path d="M0,1A1.4,1.4,0,0,1,.344.336c.27-.267.554-.4.635-.3S.905.43.635.7A1.169,1.169,0,0,1,0,1Z" transform="translate(52 18)" fill="#f2f2f2"/><path d="M0,1A1.4,1.4,0,0,1,.344.336c.27-.267.554-.4.635-.3S.905.43.635.7A1.169,1.169,0,0,1,0,1Z" transform="translate(70 11)" fill="#f2f2f2"/><path d="M0,1A1.4,1.4,0,0,1,.344.336c.27-.267.555-.4.635-.3S.905.43.635.7A1.169,1.169,0,0,1,0,1Z" transform="translate(68 15)" fill="#f2f2f2"/><path d="M5.161,0A4.559,4.559,0,0,0,3.225,1.365a3.738,3.738,0,0,1-1.871.455c-.71-.152-2,1.365-.968,1.819S7.742,5.307,7.871,4.928,8,.682,8,.682Z" transform="translate(98 58)" fill="#575a89"/><path d="M4.621,0a5.085,5.085,0,0,0-1.7,1.851,3.824,3.824,0,0,1-1.77.88C.431,2.723-.615,4.6.464,4.853s7.458.179,7.53-.248-.488-4.5-.488-4.5Z" transform="translate(110 58)" fill="#575a89"/><circle cx="3" cy="3" r="3" transform="translate(102 2)" fill="#ffb9b9"/><path d="M3,0s.322,2.742.9,3.065A4.432,4.432,0,0,1,5,4.032L3.39,5,.234,4.758A5.831,5.831,0,0,0,.041,2.1C-.41,1.21,3,0,3,0Z" transform="translate(105 5)" fill="#ffb9b9"/><path d="M3.186,0a11.243,11.243,0,0,1,0,8.286C1.354,12.357.558,13,.558,13L0,7.643l.641-.522A6.1,6.1,0,0,0,.714,4.534,14.376,14.376,0,0,1,.876.571Z" transform="translate(112 17)" fill="#ffb9b9"/><path d="M1.862,2.671S-.2,7.435.015,9.745,1.862,21.8,1.862,21.8s-.213,12.56.426,12.56,3.692,1.155,3.692.361.639-19.851.639-19.851,3.621,8.374,3.977,9.023S13.223,34.721,14,34.721s3.2-.722,2.982-1.227S14.359,21.728,13.01,18.84,11.945,5.053,11.945,5.053L9.673,0Z" transform="translate(100 24)" fill="#3f3d56"/><path d="M2.34,3.275s-1.9-.14-2.032-.629S-.1,1.737.037,1.737s.2-.35.2-.35.135-.07.2,0S.579.9.579.9.647.689.714.829.782.9.85.689s.406-.35.406-.35,1.287.07,1.49-.21S5.253.06,5.728.409,8.3,2.017,7.963,3.065,6.405,6.421,6.405,6.77s-.474.28-.61-.07-1.219-.769-1.219-.979-.61-2.167-.948-2.027-.745,1.258-.881,1.049A10.236,10.236,0,0,1,2.34,3.275Z" transform="translate(103)" fill="#3f3d56"/><path d="M13,5.409S10.024,1.023,9.153.8,6.322,0,6.322,0a14.193,14.193,0,0,0-2.54.585C3.2.877,1.024,1.389.951,2.266s.581,9.282.218,10.086-1.6,8.478-1.016,8.332.145-2.047,2.686-2.12,3.919-1.608,4.863.219S11.331,22,11.331,22q.1-.884.29-1.754a10.649,10.649,0,0,0-.581-3.508,54.432,54.432,0,0,1,.363-6.432C11.694,9.648,13,5.409,13,5.409Z" transform="translate(101 8)" fill="#ff8763"/><path d="M.787,0l.695.137a6.775,6.775,0,0,0,.139,1.781,7.027,7.027,0,0,1,.324,2.6C1.759,4.589.093,5,.093,5L0,1.849Z" transform="translate(112 13)" fill="#6c63ff"/><path d="M4.634,0a44.552,44.552,0,0,1-.971,5.273c-.324.578-1.942,8.668-1.942,8.668S-.939,18.071.355,18s2.661-3.769,2.661-3.769S7.029,6.068,7.029,5.2,8,0,8,0Z" transform="translate(97 16)" fill="#ffb9b9"/><path d="M2.749,0,1.4.5S-.321,6.329.053,6.827,4.921,6.613,5,6.4,4.172,0,2.749,0Z" transform="translate(101 10)" fill="#6c63ff"/><path d="M0,0C0,6.633,4.473,12,10,12" transform="translate(12 49)" fill="#46455b"/><path d="M0,13C0,5.814,4.92,0,11,0" transform="translate(22 49)" fill="#6c63ff"/><path d="M0,0C0,6.633,2.684,12,6,12" transform="translate(16 49)" fill="#6c63ff"/><path d="M0,17C0,7.6,5.367,0,12,0" transform="translate(22 46)" fill="#46455b"/><path d="M0,.572A6.126,6.126,0,0,0,1.749.312c.4-.227,2.067-.5,2.167-.134S5.936,1.99,4.418,2A16.114,16.114,0,0,1,.489,1.62C.085,1.426,0,.572,0,.572Z" transform="translate(20 62)" fill="#a8a8a8"/><path d="M4.446.911A22.8,22.8,0,0,1,.516.645.875.875,0,0,1,.045,0H0S.085.6.489.734A22.8,22.8,0,0,0,4.419,1C4.857,1,5.008.912,5,.785,4.939.862,4.772.91,4.446.911Z" transform="translate(20 63)" opacity="0.2"/></svg>