<svg xmlns="http://www.w3.org/2000/svg" width="84.859" height="84.289" viewBox="0 0 84.859 84.289"><g transform="translate(-0.141 -0.711)"><g opacity="0.2"><path d="M5.346,4.949a5.155,5.155,0,0,1-.48.722Q2.476,4.039,0,2.458l.107-.206A4.6,4.6,0,0,1,1.762.493,2.823,2.823,0,0,1,4.543.271,2.715,2.715,0,0,1,5.908,2.64a4.483,4.483,0,0,1-.562,2.309Z" transform="translate(0.141 32.211)" fill="#3f3d56"/><path d="M3.836,5.895c2.1.022,3.793-1.28,3.776-2.908S5.879.022,3.776,0-.016,1.281,0,2.908,1.734,5.873,3.836,5.895Z" transform="translate(0.704 33.723) rotate(-62.09)" fill="#3f3d56"/><path d="M3.836,5.895c2.1.022,3.793-1.28,3.776-2.908S5.879.022,3.776,0-.016,1.281,0,2.908,1.734,5.873,3.836,5.895Z" transform="translate(2.924 29.635) rotate(-62.09)" fill="#3f3d56"/><path d="M3.836,5.895c2.1.022,3.793-1.28,3.776-2.908S5.879.022,3.776,0-.016,1.281,0,2.908,1.734,5.873,3.836,5.895Z" transform="translate(5.145 25.549) rotate(-62.09)" fill="#3f3d56"/><path d="M3.836,5.895c2.1.022,3.793-1.28,3.776-2.908S5.879.022,3.776,0-.016,1.281,0,2.908,1.734,5.873,3.836,5.895Z" transform="translate(7.363 21.46) rotate(-62.09)" fill="#3f3d56"/><path d="M34.956,4.858a14.009,14.009,0,0,1-6.791,6.179A13.844,13.844,0,0,1,17.829,26.894,14.267,14.267,0,0,1,.806,18.1,13.733,13.733,0,0,1,8.444.848C7.893-2.1,35.7,3.484,34.956,4.858Z" transform="translate(0.466 0.711)" opacity="0.1"/></g><path d="M36,16.8l-5.255,4.9-.39,1.026-.265.686-22.2,1.061L6.693,22.565l-.383-.61L5.259,25,0,21.7s.655-4.5,1.182-6.753c.5-2.151,2.084-3.456,7.62-5.07L9.029,9.8l.553-.155c.118-.032.227-.066.347-.105a6.485,6.485,0,0,0,4.38-4.711A11,11,0,0,0,14.574.645s8.081-2.581,7.818,2.583A5.867,5.867,0,0,0,22.51,4.8C22.991,6.938,24.764,8,26.9,8.687q.578.187,1.184.345l.086.023c1.2.313,2.456.56,3.629.853C36,10.973,36,16.8,36,16.8Z" transform="translate(15 27)" fill="#db8b8b"/><path d="M.558,2.172A4.342,4.342,0,0,1,2.464.93C5.859-.417,10.139-.481,12.82,1.947c.808.73,1.421,1.638,2.154,2.441,3.465,3.8,9.41,4.823,14.433,3.423A9.166,9.166,0,0,1,32.946,7.2a5.157,5.157,0,0,1,1.914.7C37.692,9.534,39.3,12.55,41.42,15a15.455,15.455,0,0,0,5.6,4.215A10.565,10.565,0,0,0,54,19.735a21.13,21.13,0,0,1-4.865,2.45,11.36,11.36,0,0,1-5.734.685c-2.384-.437-4.381-1.944-6.364-3.3a61.893,61.893,0,0,0-6.27-3.76c-1.956-1.024-4.12-1.968-6.322-1.671-1.871.252-3.5,1.371-5.315,1.87a8.325,8.325,0,0,1-5.5-.387C8.977,13.567,6.848,7.5,1.866,6.387.591,6.1.357,6.54.1,5.024A3.563,3.563,0,0,1,.558,2.172Z" transform="translate(31 6)" fill="#35323e"/><path d="M51.139,19.194a11.33,11.33,0,0,1-5.732.686c-2.383-.438-4.38-1.947-6.363-3.306a61.843,61.843,0,0,0-6.268-3.768c-1.956-1.026-4.119-1.973-6.32-1.675-1.87.252-3.5,1.374-5.314,1.876a8.3,8.3,0,0,1-5.5-.39C10.993,10.557,8.864,4.481,3.883,3.363c-1.274-.287-1.508.151-1.771-1.368A4.519,4.519,0,0,1,2.148,0,3.9,3.9,0,0,0,.554,1.118,3.513,3.513,0,0,0,.1,3.968C.367,5.487.6,5.048,1.873,5.333c4.981,1.12,7.11,7.2,11.762,9.257a8.3,8.3,0,0,0,5.5.4c1.819-.5,3.443-1.622,5.314-1.874,2.2-.3,4.364.658,6.32,1.675a62.124,62.124,0,0,1,6.27,3.768c1.983,1.357,3.979,2.872,6.36,3.306a11.319,11.319,0,0,0,5.732-.686A21.1,21.1,0,0,0,54,18.723a9.343,9.343,0,0,1-2.521.368Z" transform="translate(31 4)" opacity="0.1"/><circle cx="9.5" cy="9.5" r="9.5" transform="translate(23 12)" fill="#35323e"/><path d="M9.5,9.562C4.646,9.561.574,5.438.055,0Q0,.565,0,1.133a11.046,11.046,0,0,0,4.708,9.406,8.586,8.586,0,0,0,9.583,0A11.046,11.046,0,0,0,19,1.133Q19,.565,18.945,0C18.426,5.439,14.353,9.562,9.5,9.562Z" transform="translate(23 19)" opacity="0.1"/><path d="M8,3.952a8.248,8.248,0,0,1-8,.026A7.686,7.686,0,0,0,.259.531S8.142-1.594,7.885,2.657A4.1,4.1,0,0,0,8,3.952Z" transform="translate(29 29)" opacity="0.1"/><circle cx="7" cy="7" r="7" transform="translate(25 20)" fill="#db8b8b"/><path d="M0,1.029A6.051,6.051,0,0,1,.919,2.4,3.243,3.243,0,0,1,1.174,5a3.862,3.862,0,0,1,.5-3.038A5.452,5.452,0,0,1,4,0" transform="translate(31 45)" opacity="0.05"/><path d="M60.9,9.858C59.47,12.253,56.546,14,51.45,14H10.311s-.268-.1-.719-.278A27.731,27.731,0,0,1,2.1,9.437C-.04,7.516-1.084,5.168,1.62,2.754a7.939,7.939,0,0,1,5.427-2L20.89.993,42.438.034S61.245-.645,61.9,4.1A8.873,8.873,0,0,1,60.9,9.858Z" transform="translate(3 71)" fill="#35323e"/><path d="M28.939,37.538c-.231.506-.855.627-1.386.783-2.185.643-3.534,2.787-5.276,4.252a10.072,10.072,0,0,1-2.95,1.73,13.226,13.226,0,0,1-7.692.248c-2.534-.594-5.417-1.1-7.322-2.88A21.113,21.113,0,0,1,.441,36.8a2.33,2.33,0,0,1-.383-1.047,1.055,1.055,0,0,1,0-.121.357.357,0,0,1,0-.07.334.334,0,0,1,0-.067A.167.167,0,0,1,.073,35.4.7.7,0,0,1,.1,35.3a.414.414,0,0,1,.025-.1c.009-.035.021-.065.03-.1.046-.153.1-.3.148-.464.016-.051.03-.1.042-.151h0A1.494,1.494,0,0,0,.394,34a3.922,3.922,0,0,0-.243-.857.411.411,0,0,0-.03-.1c-.009-.033-.021-.077-.03-.114-.016-.074-.032-.149-.046-.232s-.021-.151-.028-.232A3.364,3.364,0,0,1,0,32.128v-.186a.033.033,0,0,1,0-.021.967.967,0,0,1,.012-.183c.014-.13.032-.262.058-.392a1.047,1.047,0,0,1,.042-.216q.014-.051.028-.111a.105.105,0,0,1,0-.026h0A19.223,19.223,0,0,1,1.189,28.28a17.347,17.347,0,0,0,1.347-6.27,8.972,8.972,0,0,0-.046-1.27h0c0-.046-.012-.091-.016-.137s-.021-.149-.037-.232-.03-.163-.049-.232-.025-.1-.042-.153-.037-.135-.058-.2c-.231-.738-.693-1.393-.889-2.15q-.035-.139-.062-.279c-.016-.081-.03-.16-.039-.232v-.086a3.629,3.629,0,0,1-.023-.365V16.33a1.964,1.964,0,0,1,.012-.248.8.8,0,0,0,0-.167,2.122,2.122,0,0,1,.032-.3c.014-.1.023-.2.037-.3.025-.193.055-.388.085-.581s.065-.416.1-.622A7.913,7.913,0,0,1,2.4,11.39c.711-1.205,1.984-2.136,2.2-3.52a4.561,4.561,0,0,0-.127-1.653c-.028-.121-.053-.232-.079-.36a35.445,35.445,0,0,1-.707-4.644l.231-.072L4.487.982c.12-.033.231-.067.353-.107A29.536,29.536,0,0,0,5.453,5.52,10.928,10.928,0,0,0,6.677,8.957,4.838,4.838,0,0,0,9.449,11.2a6.972,6.972,0,0,0,2.407.088q2.425-.212,4.814-.664A11.643,11.643,0,0,0,20.03,9.567a2.311,2.311,0,0,0,.718-.555,2.764,2.764,0,0,0,.45-1.061A29.378,29.378,0,0,0,22.123,0q.589.19,1.206.351l.088.023c0,.439-.021.875-.042,1.312-.012.265-.028.529-.044.8,0,.149-.021.3-.035.448,0,.107-.021.216-.03.323a.282.282,0,0,1-.012.1c-.014.13-.028.26-.044.388-.021.174-.046.348-.072.522l-.035.232c-.049.334-.1.671-.141,1.008h0a9.733,9.733,0,0,0-.085,1.509,5.788,5.788,0,0,0,1.307,3.07,9.184,9.184,0,0,1,1.31,3.527c.051.211.1.425.136.639.065.339.113.68.146,1.022a.8.8,0,0,0,.016.2.426.426,0,0,1,0,.144v1.451a.984.984,0,0,1-.016.209.3.3,0,0,0,0,.123l-.014.135a1.543,1.543,0,0,1-.025.2c-.009.067-.021.165-.032.246s-.025.165-.039.246c-.025.153-.055.309-.09.464-.042.193-.088.383-.141.574-.014.058-.03.114-.046.17-.06.209-.127.416-.2.622-.261.727-.543,1.454-.808,2.183-.044.121-.088.232-.129.365s-.085.232-.125.36h0c-.042.123-.081.246-.122.367s-.076.232-.113.367c-.076.251-.146.5-.21.755-.018.074-.039.149-.055.232a.542.542,0,0,1-.023.1c-.007.033-.016.067-.023.1-.035.158-.067.316-.1.476l-.035.2c-.021.132-.039.262-.058.392h0c-.018.139-.032.283-.046.425-.185,2.194.543,4.644,2.416,5.787.55.337,1.252.648,1.356,1.286.058.369-.113.738-.076,1.11.06.618.644,1.017,1.129,1.393h0C28.708,36.354,29.17,36.972,28.939,37.538Z" transform="translate(18 37)" fill="#b346c4"/><g transform="translate(18 37)" opacity="0.1"><path d="M.028,8.988a7.969,7.969,0,0,0,.044,1.735A29.152,29.152,0,0,1,1.867,4.8,11.184,11.184,0,0,0,2.449,0a11.033,11.033,0,0,1-.582,2.639A24.825,24.825,0,0,0,.028,8.988Z" transform="translate(23.333 15.011)"/><path d="M.54.03C.54.471.519.909.5,1.348c-.012.266-.025.532-.044.8,0,.149-.021.3-.035.45,0,.107-.021.217-.03.324a.286.286,0,0,1-.012.1c-.014.131-.028.261-.044.389-.021.175-.046.35-.071.525l-.035.233C.181,4.5.13,4.84.089,5.178A3.427,3.427,0,0,1,0,4.533,21.223,21.223,0,0,1,.335,1.24C.386.83.425.415.453,0Z" transform="translate(22.878 0.021)"/><path d="M1.023,4.5a4.952,4.952,0,0,1,.2.968c.023-.294.039-.59.046-.884a6.751,6.751,0,0,0-.246-2.245C.793,1.592.333.935.137.177.123.117.107.058.1,0A5.951,5.951,0,0,0,.137,2.332C.34,3.089.784,3.754,1.023,4.5Z" transform="translate(1.334 15.039)"/><path d="M28.052,1.474h0c-.214.079-.444.138-.656.2-2.177.646-3.521,2.8-5.257,4.269A10.027,10.027,0,0,1,19.2,7.683a13.2,13.2,0,0,1-7.664.247c-2.525-.6-5.4-1.1-7.3-2.889A21.3,21.3,0,0,1,.38.145L.3,0A4.764,4.764,0,0,0,0,1.254,2.325,2.325,0,0,0,.38,2.306,21.238,21.238,0,0,0,4.24,7.2c1.9,1.791,4.771,2.294,7.3,2.891A13.179,13.179,0,0,0,19.2,9.844,9.969,9.969,0,0,0,22.14,8.107c1.735-1.481,3.08-3.623,5.257-4.269.525-.156,1.151-.277,1.381-.786C29.008,2.476,28.547,1.858,28.052,1.474Z" transform="translate(0.108 34.312)"/><path d="M.381.849A3.736,3.736,0,0,0,.151,0,3.969,3.969,0,0,0,.119,2.049,3.85,3.85,0,0,0,.381.849Z" transform="translate(0.074 30.805)"/><path d="M.909,4.6a2.955,2.955,0,0,1-.127.5C.755,4.976.73,4.864.7,4.735A35.842,35.842,0,0,1,0,.072L.23,0Q.417,1.3.69,2.565A5.294,5.294,0,0,1,.909,4.6Z" transform="translate(3.758 0.818)"/></g><path d="M4.261,0,2.825,1.042S-.21,7.724.012,11.471c.034.6.052,1.194.041,1.792-.024,1.213.332,3.17,2.96,2.652C6.758,15.179,16,11.874,16,11.874l-.625-2.937s-7.867,1.957-9.23,1.112c0,0,1.811-4.958,1.561-5.568S4.261,0,4.261,0Z" transform="translate(11 48)" fill="#db8b8b"/><path d="M10.847,0l.813,2a76.081,76.081,0,0,1,2.825,7.739c.469,2.121,1.3,7.616,1.3,7.616s1.882,3.879-5.417,2.246S0,15.98,0,15.98l1.423-2.748s6.945,1.373,7.888.625c0,0-2.825-6.866-2.591-7.366S10.847,0,10.847,0Z" transform="translate(37 43)" fill="#db8b8b"/><path d="M0,11.667l1.151-1.23S3.338-1.6,5.3.181s-.807,12.042-.807,12.042L1.728,14Z" transform="translate(26 46)" fill="#db8b8b"/><path d="M5,10.953,4.4,10S2.3-1.8.495.236,2.39,12.049,2.39,12.049l.8.951,1.6-.543Z" transform="translate(32 46)" fill="#db8b8b"/><path d="M11.9,0S1.411.871.512,1.38.172,5,.172,5L14,4.334Z" transform="translate(34 79)" fill="#db8b8b"/><path d="M11.9,0S1.411.871.512,1.38.172,5,.172,5L14,4.334Z" transform="translate(34 79)" opacity="0.1"/><path d="M18,6.239C16.592,8.657,16.131,10,11.095,10H0V2.889l1.419-.822A25.159,25.159,0,0,1,14.193.153Z" transform="translate(43 75)" opacity="0.1"/><path d="M20,5.82C18.622,8.237,15.793,10,10.865,10H0V2.888l1.387-.821A24.16,24.16,0,0,1,13.894.153Z" transform="translate(44 75)" fill="#35323e"/><path d="M17.025.9A4.111,4.111,0,0,1,18.407.753a1.981,1.981,0,0,1,1.331.8,1.469,1.469,0,0,0,.386.439,1.417,1.417,0,0,0,.63.149,33.782,33.782,0,0,1,4.545.441,5.312,5.312,0,0,1,3.569,2.189A.847.847,0,0,1,29,5.189a.893.893,0,0,1-.665.673c-1.054.382-2.231-.131-3.356-.332a14.438,14.438,0,0,0-3.873.079q-1.909.185-3.835.184a18.8,18.8,0,0,1-3.138-.242c-.579-.1-1.149-.243-1.734-.308a14.2,14.2,0,0,0-1.681-.052q-3.9.037-7.785-.1A8.769,8.769,0,0,1,.506,4.782a.777.777,0,0,1-.413-.247.559.559,0,0,1-.082-.3A5.242,5.242,0,0,1,.748,1.211C.927.9,1.28.187,1.679.036a5.519,5.519,0,0,1,1.9.3,48.239,48.239,0,0,0,8.65,1.01A22.917,22.917,0,0,0,17.025.9Z" transform="translate(23 79)" fill="#db8b8b"/><path d="M15,4.568,13.287,12,2.756,11.707c-1.5-.643,2.286-2.432,0-4.63L0,0A30.1,30.1,0,0,1,5.77,1.572a8.234,8.234,0,0,0,3.718.855S14.489,3.854,15,4.568Z" transform="translate(11 73)" opacity="0.1"/><path d="M20,4.578,18.252,12,7.5,11.707A27.446,27.446,0,0,1,0,7.193L4.692,0a31.346,31.346,0,0,1,5.889,1.57,8.629,8.629,0,0,0,3.795.857S19.478,3.864,20,4.578Z" transform="translate(5 73)" fill="#35323e"/><ellipse cx="3.761" cy="7.768" rx="3.761" ry="7.768" transform="translate(24.2 22.851) rotate(-83.23)" fill="#35323e"/><circle cx="2.5" cy="2.5" r="2.5" transform="translate(30 10)" fill="#35323e"/><path d="M0,.187S3.2-.446,4.753.618,0,.187,0,.187Z" transform="translate(30 12)" opacity="0.1"/><path d="M19,5.766c0,.187-.146.405-.655.024-1.284-.958-4.239-3.483-8.3-3.483C5.814,2.307,2.383,4.9.874,5.79.363,6.093,0,5.928,0,5.766,0,5.129,4.368,0,10.046,0S19,5.129,19,5.766Z" transform="translate(23 14)" fill="#6c63ff"/><path d="M18.751,4.051c-.066.137-.245.2-.625-.124C16.842,2.847,13.887,0,9.828,0,5.6,0,2.164,2.92.655,3.927A1.165,1.165,0,0,1,.3,4.093a1.717,1.717,0,0,0-.3.648c0,.183.363.368.874.027C2.383,3.762,5.814.842,10.046.842c4.06,0,7.015,2.847,8.3,3.927.509.421.655.177.655-.027a2.093,2.093,0,0,0-.249-.691Z" transform="translate(23 16)" opacity="0.1"/><rect width="1" height="4" transform="translate(43 20)" fill="#6a5c99"/><path d="M0,0H0C.552,0,1,1.084,1,2.421v.157C1,3.916.552,5,0,5H0Z" transform="translate(41 24)" fill="#6c63ff"/><rect width="1" height="5" rx="0.5" transform="translate(40 24)" fill="#6a5c99"/><rect width="1" height="4" transform="translate(24 24) rotate(180)" fill="#6a5c99"/><path d="M0,0H0C.552,0,1,1.084,1,2.421v.157C1,3.916.552,5,0,5H0V0Z" transform="translate(24 29) rotate(180)" fill="#6c63ff"/><rect width="1" height="5" rx="0.5" transform="translate(24 29) rotate(180)" fill="#6a5c99"/><path d="M.006.066A4.749,4.749,0,0,0,.855,2.812a4.8,4.8,0,0,0,.431,6.01,3.713,3.713,0,0,0,5.428,0,4.8,4.8,0,0,0,.431-6.01C7.686,2.057.006-.434.006.066Z" transform="translate(76 57)" opacity="0.1"/></g></svg>